<?xml version="1.0" encoding="UTF-8"?>
<svg xmlns="http://www.w3.org/2000/svg" width="1800" height="1280" viewBox="0 0 1800 1280" role="img" aria-labelledby="title desc">
  <title id="title">Azure ELK SOC Lab — Verified Architecture and Workflow</title>
  <desc id="desc">Evidence-backed diagram of three Azure virtual networks and six systems, showing two verified peerings, direct endpoint telemetry to Elasticsearch, Fleet management, controlled SSH and RDP testing, alert-to-ticket automation, and an unconfirmed endpoint-initiated Mythic callback.</desc>

  <defs>
    <linearGradient id="page" x1="0" y1="0" x2="0" y2="1">
      <stop offset="0" stop-color="#f8fafc"/>
      <stop offset="1" stop-color="#eef5fb"/>
    </linearGradient>
    <linearGradient id="azureBg" x1="0" y1="0" x2="1" y2="1">
      <stop offset="0" stop-color="#f7fbff"/>
      <stop offset="1" stop-color="#edf6ff"/>
    </linearGradient>
    <marker id="greenEnd" markerWidth="10" markerHeight="10" refX="9" refY="5" orient="auto" markerUnits="strokeWidth"><path d="M0 0L10 5L0 10Z" fill="#15803d"/></marker>
    <marker id="blueEnd" markerWidth="10" markerHeight="10" refX="9" refY="5" orient="auto" markerUnits="strokeWidth"><path d="M0 0L10 5L0 10Z" fill="#2563eb"/></marker>
    <marker id="blueStart" markerWidth="10" markerHeight="10" refX="1" refY="5" orient="auto" markerUnits="strokeWidth"><path d="M10 0L0 5L10 10Z" fill="#2563eb"/></marker>
    <marker id="purpleEnd" markerWidth="10" markerHeight="10" refX="9" refY="5" orient="auto" markerUnits="strokeWidth"><path d="M0 0L10 5L0 10Z" fill="#7c3aed"/></marker>
    <marker id="purpleStart" markerWidth="10" markerHeight="10" refX="1" refY="5" orient="auto" markerUnits="strokeWidth"><path d="M10 0L0 5L10 10Z" fill="#7c3aed"/></marker>
    <marker id="orangeEnd" markerWidth="10" markerHeight="10" refX="9" refY="5" orient="auto" markerUnits="strokeWidth"><path d="M0 0L10 5L0 10Z" fill="#d97706"/></marker>
    <marker id="redEnd" markerWidth="10" markerHeight="10" refX="9" refY="5" orient="auto" markerUnits="strokeWidth"><path d="M0 0L10 5L0 10Z" fill="#dc2626"/></marker>
    <marker id="grayEnd" markerWidth="10" markerHeight="10" refX="9" refY="5" orient="auto" markerUnits="strokeWidth"><path d="M0 0L10 5L0 10Z" fill="#64748b"/></marker>
    <style>
      .h1{font:800 40px Inter,"Segoe UI",Arial,sans-serif;fill:#102a43;letter-spacing:.6px}.sub{font:500 19px Inter,"Segoe UI",Arial,sans-serif;fill:#52667a}.eyebrow{font:800 13px Inter,"Segoe UI",Arial,sans-serif;fill:#486581;letter-spacing:1.5px}.section{font:800 22px Inter,"Segoe UI",Arial,sans-serif;fill:#102a43}.vnet{font:800 20px Inter,"Segoe UI",Arial,sans-serif;fill:#102a43}.meta{font:500 13px Inter,"Segoe UI",Arial,sans-serif;fill:#64748b}.cardTitle{font:750 18px Inter,"Segoe UI",Arial,sans-serif;fill:#fff}.ip{font:700 14px ui-monospace,SFMono-Regular,Consolas,monospace;fill:#e0ecff}.body{font:500 14px Inter,"Segoe UI",Arial,sans-serif;fill:#243b53}.strong{font:700 14px Inter,"Segoe UI",Arial,sans-serif;fill:#102a43}.label{font:700 12px Inter,"Segoe UI",Arial,sans-serif;paint-order:stroke;stroke:#f8fafc;stroke-width:5px;stroke-linejoin:round}.outTitle{font:800 16px Inter,"Segoe UI",Arial,sans-serif;fill:#102a43}.outBody{font:500 13px Inter,"Segoe UI",Arial,sans-serif;fill:#52667a}.legend{font:600 12px Inter,"Segoe UI",Arial,sans-serif;fill:#334e68}.pill{font:700 12px Inter,"Segoe UI",Arial,sans-serif}.step{font:700 14px Inter,"Segoe UI",Arial,sans-serif;fill:#243b53}.stepSub{font:500 12px Inter,"Segoe UI",Arial,sans-serif;fill:#64748b}
    </style>
  </defs>

  <rect width="1800" height="1280" fill="url(#page)"/>
  <text x="70" y="48" class="eyebrow">SOC PORTFOLIO · EVIDENCE-BACKED</text>
  <text x="70" y="92" class="h1">Azure ELK Security Lab</text>
  <text x="70" y="126" class="sub">Verified topology, telemetry paths, controlled testing, detection, investigation, and incident automation</text>
  <rect x="1420" y="48" width="310" height="70" rx="18" fill="#ecfdf5" stroke="#16a34a" stroke-width="2"/>
  <text x="1575" y="77" text-anchor="middle" class="strong" fill="#166534">Evidence status</text>
  <text x="1575" y="101" text-anchor="middle" class="meta">Confirmed · limited · unconfirmed kept separate</text>

  <!-- Access and testing sources -->
  <text x="70" y="172" class="section">1 · Access and controlled test sources</text>
  <rect x="70" y="192" width="520" height="78" rx="16" fill="#fff" stroke="#475569" stroke-width="2"/>
  <circle cx="112" cy="231" r="23" fill="#102a43"/><text x="112" y="237" text-anchor="middle" font-family="Inter,Segoe UI,Arial" font-size="15" font-weight="800" fill="#fff">SOC</text>
  <text x="150" y="224" class="strong">SOC analyst workstation</text><text x="150" y="247" class="body">Browser access to Kibana / Elastic Security</text>
  <rect x="1210" y="192" width="520" height="78" rx="16" fill="#fffaf0" stroke="#d97706" stroke-width="2"/>
  <circle cx="1252" cy="231" r="23" fill="#b45309"/><text x="1252" y="237" text-anchor="middle" font-family="Inter,Segoe UI,Arial" font-size="18" font-weight="800" fill="#fff">K</text>
  <text x="1290" y="224" class="strong">Authorized Kali test host</text><text x="1290" y="247" class="body">RDP reconnaissance and unsuccessful authentication testing</text>

  <!-- Azure topology -->
  <rect x="35" y="300" width="1730" height="650" rx="26" fill="url(#azureBg)" stroke="#0078d4" stroke-width="3"/>
  <rect x="62" y="317" width="220" height="38" rx="11" fill="#0078d4"/><text x="172" y="343" text-anchor="middle" font-family="Inter,Segoe UI,Arial" font-size="19" font-weight="800" fill="#fff">MICROSOFT AZURE</text>
  <text x="310" y="343" class="section">2 · Multi-region hub-and-spoke topology</text>

  <!-- VNet panels -->
  <rect x="70" y="385" width="500" height="500" rx="20" fill="#fff" stroke="#0284c7" stroke-width="3"/>
  <rect x="70" y="385" width="500" height="62" rx="18" fill="#e0f2fe"/><path d="M70 427H570" stroke="#0284c7" stroke-width="3"/>
  <text x="95" y="414" class="vnet">ubuntu-vnet · spoke</text><text x="95" y="438" class="meta">10.1.0.0/16 · subnet 10.1.0.0/24 · Japan West</text>
  <rect x="650" y="385" width="500" height="500" rx="20" fill="#fff" stroke="#16a34a" stroke-width="3"/>
  <rect x="650" y="385" width="500" height="62" rx="18" fill="#dcfce7"/><path d="M650 427H1150" stroke="#16a34a" stroke-width="3"/>
  <text x="675" y="414" class="vnet">elaskiba-vnet · monitoring hub</text><text x="675" y="438" class="meta">10.0.0.0/16 · subnet 10.0.0.0/24 · Korea Central</text>
  <rect x="1230" y="385" width="500" height="500" rx="20" fill="#fff" stroke="#7c3aed" stroke-width="3"/>
  <rect x="1230" y="385" width="500" height="62" rx="18" fill="#ede9fe"/><path d="M1230 427H1730" stroke="#7c3aed" stroke-width="3"/>
  <text x="1255" y="414" class="vnet">win-vnet · spoke</text><text x="1255" y="438" class="meta">10.2.0.0/16 · subnet 10.2.0.0/24 · Japan East</text>

  <!-- Peering, only two verified links -->
  <path d="M570 407H650" stroke="#7c3aed" stroke-width="5" marker-start="url(#purpleStart)" marker-end="url(#purpleEnd)"/><text x="610" y="377" text-anchor="middle" class="label" fill="#6d28d9">VERIFIED PEERING</text>
  <path d="M1150 407H1230" stroke="#7c3aed" stroke-width="5" marker-start="url(#purpleStart)" marker-end="url(#purpleEnd)"/><text x="1190" y="377" text-anchor="middle" class="label" fill="#6d28d9">VERIFIED PEERING</text>

  <!-- Host cards -->
  <g>
    <rect x="95" y="475" width="450" height="170" rx="15" fill="#f8fafc" stroke="#0284c7" stroke-width="2"/><path d="M95 490Q95 475 110 475H530Q545 475 545 490V522H95Z" fill="#0369a1"/>
    <text x="120" y="507" class="cardTitle">Ubuntu endpoint</text><text x="520" y="507" text-anchor="end" class="ip">10.1.0.4</text>
    <text x="120" y="550" class="strong">Elastic Agent telemetry</text><text x="120" y="576" class="body">Linux system · authentication · SSH</text><text x="120" y="602" class="body">Controlled SSH target</text>
    <rect x="120" y="615" width="150" height="22" rx="11" fill="#dcfce7"/><text x="195" y="630" text-anchor="middle" class="pill" fill="#166534">CONFIRMED</text>

    <rect x="95" y="685" width="450" height="165" rx="15" fill="#fffaf0" stroke="#d97706" stroke-width="2"/><path d="M95 700Q95 685 110 685H530Q545 685 545 700V732H95Z" fill="#b45309"/>
    <text x="120" y="717" class="cardTitle">myVm · osTicket</text><text x="520" y="717" text-anchor="end" class="ip">10.1.0.5</text>
    <text x="120" y="762" class="body">Incident-management server</text><text x="120" y="787" class="body">Receives Elastic webhook/API tickets</text><text x="120" y="812" class="body">Origin of controlled SSH failures</text>

    <rect x="675" y="475" width="450" height="170" rx="15" fill="#f7fef9" stroke="#16a34a" stroke-width="2"/><path d="M675 490Q675 475 690 475H1110Q1125 475 1125 490V522H675Z" fill="#15803d"/>
    <text x="700" y="507" class="cardTitle">Elaskiba · Elasticsearch + Kibana</text><text x="1100" y="507" text-anchor="end" class="ip">10.0.0.4</text>
    <text x="700" y="550" class="body">Store/index endpoint telemetry</text><text x="700" y="576" class="body">Search · rules · alerts · investigation</text><text x="700" y="602" class="body">Dashboards and Fleet UI</text>
    <rect x="700" y="615" width="150" height="22" rx="11" fill="#dcfce7"/><text x="775" y="630" text-anchor="middle" class="pill" fill="#166534">CONFIRMED</text>

    <rect x="675" y="685" width="450" height="165" rx="15" fill="#f0fdf4" stroke="#16a34a" stroke-width="2"/><path d="M675 700Q675 685 690 685H1110Q1125 685 1125 700V732H675Z" fill="#166534"/>
    <text x="700" y="717" class="cardTitle">Fleet Server</text><text x="1100" y="717" text-anchor="end" class="ip">10.0.0.5</text>
    <text x="700" y="762" class="body">Enrollment · policies · integrations</text><text x="700" y="787" class="body">Agent actions · status · health</text><text x="700" y="812" class="strong">Management plane — not telemetry relay</text>

    <rect x="1255" y="475" width="450" height="170" rx="15" fill="#faf8ff" stroke="#7c3aed" stroke-width="2"/><path d="M1255 490Q1255 475 1270 475H1690Q1705 475 1705 490V522H1255Z" fill="#6d28d9"/>
    <text x="1280" y="507" class="cardTitle">Windows endpoint · win</text><text x="1680" y="507" text-anchor="end" class="ip">10.2.0.4</text>
    <text x="1280" y="550" class="strong">Elastic Agent telemetry</text><text x="1280" y="576" class="body">Security · Sysmon · Defender events</text><text x="1280" y="602" class="body">Controlled RDP test target</text>
    <rect x="1280" y="615" width="150" height="22" rx="11" fill="#dcfce7"/><text x="1355" y="630" text-anchor="middle" class="pill" fill="#166534">CONFIRMED</text>

    <rect x="1255" y="685" width="450" height="165" rx="15" fill="#f8fafc" stroke="#64748b" stroke-width="2"/><path d="M1255 700Q1255 685 1270 685H1690Q1705 685 1705 700V732H1255Z" fill="#475569"/>
    <text x="1280" y="717" class="cardTitle">Mythic C2 test server</text><text x="1680" y="717" text-anchor="end" class="ip">10.2.0.5</text>
    <text x="1280" y="762" class="body">HTTP C2 profile configured</text><text x="1280" y="787" class="body">Apollo Windows payload generated</text><rect x="1280" y="803" width="300" height="26" rx="13" fill="#fee2e2"/><text x="1430" y="821" text-anchor="middle" class="pill" fill="#b91c1c">CALLBACK NOT CONFIRMED</text>
  </g>

  <!-- Flow lines -->
  <path d="M330 685V645" stroke="#d97706" stroke-width="5" marker-end="url(#orangeEnd)"/><text x="347" y="672" class="label" fill="#b45309">SSH FAILURES · TCP 22</text>
  <path d="M330 270V285H1100V475" fill="none" stroke="#334155" stroke-width="5" marker-end="url(#grayEnd)"/><text x="1117" y="294" class="label" fill="#334155">KIBANA WEB UI</text>
  <path d="M1470 270V285H1680V475" fill="none" stroke="#d97706" stroke-width="5" marker-end="url(#orangeEnd)"/><text x="1575" y="278" text-anchor="middle" class="label" fill="#b45309">RDP TEST · TCP 3389</text>
  <path d="M545 555H675" stroke="#15803d" stroke-width="6" marker-end="url(#greenEnd)"/><text x="610" y="542" text-anchor="middle" class="label" fill="#166534">LINUX TELEMETRY</text>
  <path d="M1255 575H1125" stroke="#15803d" stroke-width="6" marker-end="url(#greenEnd)"/><text x="1190" y="562" text-anchor="middle" class="label" fill="#166534">WINDOWS TELEMETRY</text>
  <path d="M675 755H610V610H545" fill="none" stroke="#2563eb" stroke-width="5" stroke-dasharray="10 7" marker-start="url(#blueStart)" marker-end="url(#blueEnd)"/><text x="610" y="670" text-anchor="middle" class="label" fill="#1d4ed8">FLEET CONTROL</text>
  <path d="M1125 755H1190V610H1255" fill="none" stroke="#2563eb" stroke-width="5" stroke-dasharray="10 7" marker-start="url(#blueStart)" marker-end="url(#blueEnd)"/><text x="1190" y="670" text-anchor="middle" class="label" fill="#1d4ed8">FLEET CONTROL</text>
  <path d="M675 600H610V770H545" fill="none" stroke="#dc2626" stroke-width="5" marker-end="url(#redEnd)"/><text x="610" y="795" text-anchor="middle" class="label" fill="#b91c1c">TICKET API</text>
  <path d="M1480 645V685" stroke="#64748b" stroke-width="5" stroke-dasharray="11 8" marker-end="url(#grayEnd)"/><text x="1480" y="670" text-anchor="middle" class="label" fill="#475569">INTENDED CALLBACK</text>

  <rect x="410" y="900" width="980" height="32" rx="16" fill="#f1f5f9" stroke="#94a3b8"/><text x="900" y="921" text-anchor="middle" class="meta">No direct ubuntu-vnet ↔ win-vnet peering is evidenced; VNet peering is non-transitive.</text>

  <!-- Outcomes -->
  <text x="70" y="990" class="section">3 · Evidence-backed SOC outcomes</text>
  <g>
    <rect x="70" y="1015" width="385" height="112" rx="16" fill="#fff" stroke="#d97706" stroke-width="2"/><text x="95" y="1046" class="outTitle">CONTROLLED ACTIVITY</text><text x="95" y="1072" class="outBody">SSH: myVm → Ubuntu · RDP: Kali → Windows</text><text x="95" y="1096" class="outBody">RDP credential success: not confirmed</text>
    <rect x="495" y="1015" width="385" height="112" rx="16" fill="#fff" stroke="#2563eb" stroke-width="2"/><text x="520" y="1046" class="outTitle">DETECTION VALIDATION</text><text x="520" y="1072" class="outBody">SSH threshold 5 · source + user grouping</text><text x="520" y="1096" class="outBody">Windows 4625 threshold 2 · tuning required</text>
    <rect x="920" y="1015" width="385" height="112" rx="16" fill="#fff" stroke="#7c3aed" stroke-width="2"/><text x="945" y="1046" class="outTitle">ANALYST INVESTIGATION</text><text x="945" y="1072" class="outBody">Alert details · raw events · user/source pivots</text><text x="945" y="1096" class="outBody">Evidence-based outcome and limitations</text>
    <rect x="1345" y="1015" width="385" height="112" rx="16" fill="#fff" stroke="#dc2626" stroke-width="2"/><text x="1370" y="1046" class="outTitle">INCIDENT AUTOMATION</text><text x="1370" y="1072" class="outBody">Elastic webhook → osTicket API</text><text x="1370" y="1096" class="outBody">SSH and RDP-labelled tickets confirmed</text>
    <path d="M455 1071H495" stroke="#64748b" stroke-width="4" marker-end="url(#grayEnd)"/><path d="M880 1071H920" stroke="#64748b" stroke-width="4" marker-end="url(#grayEnd)"/><path d="M1305 1071H1345" stroke="#64748b" stroke-width="4" marker-end="url(#grayEnd)"/>
  </g>

  <!-- Legend -->
  <rect x="35" y="1160" width="1730" height="88" rx="18" fill="#fff" stroke="#cbd5e1" stroke-width="2"/>
  <text x="70" y="1187" class="eyebrow">RELATIONSHIP LEGEND</text>
  <line x1="70" y1="1217" x2="125" y2="1217" stroke="#7c3aed" stroke-width="5" marker-start="url(#purpleStart)" marker-end="url(#purpleEnd)"/><text x="145" y="1222" class="legend">VNet peering</text>
  <line x1="300" y1="1217" x2="365" y2="1217" stroke="#15803d" stroke-width="6" marker-end="url(#greenEnd)"/><text x="385" y="1222" class="legend">Telemetry data plane</text>
  <line x1="590" y1="1217" x2="655" y2="1217" stroke="#2563eb" stroke-width="5" stroke-dasharray="10 7" marker-end="url(#blueEnd)"/><text x="675" y="1222" class="legend">Fleet management</text>
  <line x1="860" y1="1217" x2="925" y2="1217" stroke="#d97706" stroke-width="5" marker-end="url(#orangeEnd)"/><text x="945" y="1222" class="legend">Controlled test</text>
  <line x1="1125" y1="1217" x2="1190" y2="1217" stroke="#dc2626" stroke-width="5" marker-end="url(#redEnd)"/><text x="1210" y="1222" class="legend">Ticket automation</text>
  <line x1="1400" y1="1217" x2="1465" y2="1217" stroke="#64748b" stroke-width="5" stroke-dasharray="11 8" marker-end="url(#grayEnd)"/><text x="1485" y="1222" class="legend">Outcome unconfirmed</text>

  <text x="900" y="1270" text-anchor="middle" class="meta">Public IPs, credentials, tokens, callback keys, and personal identifiers are intentionally omitted.</text>
</svg>
